<svg version="1" xmlns="http://www.w3.org/2000/svg" width="682.667" height="682.667" viewBox="0 0 512.000000 512.000000"><path d="M239.3 13.7c-.9.6-.3 2.5 2 7.2 4.4 8.9 4.4 17.1.2 25.6-3.6 7.1-7.6 10.5-10 8.5-.8-.7-3.2-4.5-5.2-8.4-2.2-4.2-6-9.3-9.2-12.4-8.4-8.2-8.7-8.2-10.6-1.4-5.9 21.5-12.9 30.5-23.7 30.5-4.6 0-7.7-2.5-10.3-8.4-1-2.1-2.1-3.9-2.4-3.9-1.2 0-21.7 16.9-31.6 25.9-25 23.1-39.1 42.8-43 60.2-2.3 10.2-3.1 47.3-1.6 72.1 1.5 23.7 4.3 53.6 7.6 80.8 1.4 11.3 2.7 22.4 2.9 24.7.8 7.8 14.5 32.9 19.8 36.2 2.2 1.4 4.5.5 5.5-2.2.4-1.2.7-32.8.8-70.2 0-41.9.5-69.3 1.1-71.5 2.2-7.7 14.5-11.5 36.9-11.5 21.5 0 28.7 3.1 31.5 13.6 2.2 7.9-3.1 24.4-11.5 36.1-4.4 6.1-6.9 6.7 27-6.7 27.4-10.9 51.2-21.3 72.3-31.9 37.4-18.6 55.2-23.4 70.3-19 7.2 2.1 13.8 8.8 16.2 16.5 3.6 11.2 3.9 16.7 4.5 75.9.6 54.7.8 59.8 2.5 62.3 4.6 7 16-.4 20.1-13.1.9-2.6 2.2-8.5 3-13.2.8-4.7 3.5-19.8 6-33.5 10.7-59.7 16.8-112 15.2-132-1.6-20.7-9.6-40.3-24.5-60.2-6.5-8.7-22.4-25.2-28-29.2l-2.9-2.1-3 5.3c-4 7.1-7.8 8.9-13 6.1-1.9-1-8.1-7.3-13.8-14-10.7-12.6-16.8-18.5-24.6-24.1l-4.5-3.2-.6 7.9c-.6 9.5-3.5 16.3-7.8 18.6-4.2 2.1-7 .3-17-10.8-13.8-15.5-24.2-25.1-30-28.1-5.7-2.8-14.5-4.4-16.6-3z"/><path d="M165.3 281.6c-1.1 2.8.5 14.8 2.7 20.6 5.8 15.6 24.6 26.6 43.5 25.6 13.3-.7 18.8-4.9 29.1-22.4 6.1-10.4 9.6-13.4 15.5-13.4 5.6 0 9.8 3.6 15.4 13.2 10.3 17.6 15.7 21.9 28.5 22.6 13.7.8 25.6-3.4 34.9-12.3 8-7.7 11.3-15 11.9-26.8l.4-8.7h-90.6c-81.7 0-90.7.2-91.3 1.6zM207.9 348c-6.6 5.3-8.8 14-5.2 20.1 1 1.6 3.8 3.9 6.3 5.2 4 2 6 2.2 18.5 2.2 14.7-.1 20.8-1.2 25.5-4.7l2.8-2 4.3 2.5c5.7 3.4 16.8 5.1 28.9 4.4 15.8-.8 22-4.8 22-14.2 0-5.6-1.7-9.2-6.5-13.4-2.8-2.4-4.5-3.1-7.8-3.1-4.8 0-6.7 1.3-6.7 4.7 0 1.7 1.3 3.1 5 5.4 5.3 3.2 6.2 5.5 3.4 8.3-2.1 2.2-4.9 2-10.1-.5-3.4-1.6-5.2-3.5-7.5-7.6-4.9-8.6-6.6-9.3-24.1-9.3-18 0-19.7.6-24.8 8.9-2.7 4.3-4.8 6.3-8.1 7.9-5.5 2.7-8 2.8-10.4.1-2.2-2.5-1.3-4.3 4.1-8 5.1-3.5 6.1-5.5 3.9-8-2.8-3.1-9.1-2.6-13.5 1.1zM232.2 381.9c-7.5.4-10.5 1-11.2 2.1-.6.9-.9 16.2-.8 39.5l.3 38 2.8 6c3 6.4 7.5 11.8 11.9 14.1 4 2.1 38.7 2 42.7-.1 4.3-2.2 9.8-9.1 12.3-15.4 2.2-5.4 2.3-6.9 2.6-43.3l.3-37.7-2.3-1.5c-1.9-1.2-7-1.6-25.3-2-12.7-.2-27.6-.1-33.3.3zm49.4 12.3c2.1 2.1 1.5 31.6-.7 34.9-.8 1.1-1.4.8-3.2-1.6-8.8-12-16.8-15.5-28.2-12.4-3.9 1.1-11.2 7.4-14.7 12.9-1.3 2.1-1.8 2.3-2.9 1.2-1-.9-1.5-5.4-1.7-15.7-.5-17.8-.2-19.2 4.1-19.8 5.3-.8 46.5-.3 47.3.5z"/></svg>